inDegrees=no
num_controls=7
num_derivatives=13
num_iterations=122
num_multipliers=7
num_parameters=0
num_slacks=7
num_states=26
objective=0.512241
objective_accelerations=0.002387
objective_balance=0.003187
objective_effort=0.014778
objective_height=0.486212
objective_ligament=0.005677
solver_duration=1443.509616
status=Solve_Succeeded
success=true
DataType=double
version=3
OpenSimVersion=4.5
endheader
time	/jointset/ground_pelvis/pelvis_tilt/value	/jointset/ground_pelvis/pelvis_tx/value	/jointset/ground_pelvis/pelvis_ty/value	/jointset/hip_r/hip_flexion_r/value	/jointset/hip_r/hip_adduction_r/value	/jointset/hip_r/hip_rotation_r/value	/jointset/back/lumbar_extension/value	/jointset/patellofemoral_r/patellar_flexion_r/value	/jointset/knee_r/knee_flexion_r/value	/jointset/knee_r/knee_adduction_r/value	/jointset/knee_r/knee_rotation_r/value	/jointset/ankle_r/ankle_angle_r/value	/jointset/subtalar_r/subtalar_angle_r/value	/jointset/ground_pelvis/pelvis_tilt/speed	/jointset/ground_pelvis/pelvis_tx/speed	/jointset/ground_pelvis/pelvis_ty/speed	/jointset/hip_r/hip_flexion_r/speed	/jointset/hip_r/hip_adduction_r/speed	/jointset/hip_r/hip_rotation_r/speed	/jointset/back/lumbar_extension/speed	/jointset/patellofemoral_r/patellar_flexion_r/speed	/jointset/knee_r/knee_flexion_r/speed	/jointset/knee_r/knee_adduction_r/speed	/jointset/knee_r/knee_rotation_r/speed	/jointset/ankle_r/ankle_angle_r/speed	/jointset/subtalar_r/subtalar_angle_r/speed	/forceset/tau_hip_flexion_r	/forceset/tau_hip_adduction_r	/forceset/tau_hip_rotation_r	/forceset/tau_knee_flexion_r	/forceset/tau_ankle_angle_r	/forceset/tau_subtalar_angle_r	/forceset/tau_lumbar_extension	lambda_cid13_p0	lambda_cid14_p0	lambda_cid14_p1	lambda_cid14_p2	lambda_cid14_p3	lambda_cid14_p4	lambda_cid14_p5	/jointset/ground_pelvis/pelvis_tilt/accel	/jointset/ground_pelvis/pelvis_tx/accel	/jointset/ground_pelvis/pelvis_ty/accel	/jointset/hip_r/hip_flexion_r/accel	/jointset/hip_r/hip_adduction_r/accel	/jointset/hip_r/hip_rotation_r/accel	/jointset/back/lumbar_extension/accel	/jointset/patellofemoral_r/patellar_flexion_r/accel	/jointset/knee_r/knee_flexion_r/accel	/jointset/knee_r/knee_adduction_r/accel	/jointset/knee_r/knee_rotation_r/accel	/jointset/ankle_r/ankle_angle_r/accel	/jointset/subtalar_r/subtalar_angle_r/accel	gamma_cid13_p0	gamma_cid14_p0	gamma_cid14_p1	gamma_cid14_p2	gamma_cid14_p3	gamma_cid14_p4	gamma_cid14_p5
0	-0.006514092294173911	0.09625966037697238	0.9427242462640741	0.1762555222360518	-0.2321511210244773	-0.2616377840942622	-0.038598046466844	0.07317863873451014	0.07317863873451017	0.1745293035503204	0.1745297086719228	0.03247278518263602	-0.00345033020545732	0	0	0	0	0	0	0	0	0	0	0	0	0	0.1647016790851691	-0.08504265314310365	-0.03894471195540691	-0.3669509071164107	0.39285815560969	-0.1936267932273055	-0.06197255345024601	-39.07564171196254	74.17351085669772	-61.0839430479554	-1.247891502593816	-44.52013431554395	-698.0533150454139	8.696621360285711	-0.07379683844302976	0.4669945208154948	0.02258617716831043	-0.143715993733048	0.3029956168631891	0.05679299335092424	-1.097046117080569	0.4737091902842821	0.4737091902842793	-0.7351256186684216	0.02134764607620433	0.9152932301172246	0.5386347236477211	4.354750910987362e-11	5.418865983994194e-10	1.617375471454255e-08	-1.153448649237044e-08	-2.728377781194995e-10	-1.442913825423408e-08	2.719541326448604e-08
0.01	-0.006518094351864142	0.09628400365930778	0.9427254654986441	0.1762476518963434	-0.2321351317466574	-0.2616337951948368	-0.0386534044713789	0.07320210314104321	0.07320210314104322	0.1744908074827594	0.1745294282477044	0.03252002158476758	-0.003422168505858939	-0.0008306163481187469	0.004969331797349034	0.0002493007269600993	-0.001653848660645255	0.003235711001043904	0.0007870384426488416	-0.01112502881232834	0.004695295309848269	0.004695295309848212	-0.007775265204905455	-5.141460130805029e-05	0.009584752277080158	0.005705620864000494	0.1697900690272336	-0.1404631345657119	-0.03988855990648055	-0.3774390858149592	0.398135245656658	-0.1474878994592939	-0.06540290576595011	-39.07632520412412	77.64745370834225	-40.69540015761774	-4.203866592201836	-48.95468155131906	-698.4565439426129	50.55233943530704	-0.0922241381983664	0.5270037541683043	0.02691720657971943	-0.1881860291424721	0.3395355184411206	0.08804602850125245	-1.128245449110592	0.4678017931050368	0.4678017931050318	-0.8101346395149178	-0.01768749897265638	1.000687335916846	0.5975190475568766	3.814566275578229e-09	5.522216805605093e-09	-1.784122268129659e-08	1.041386217817767e-08	-9.504400994145074e-10	1.292417987836943e-09	-1.847194524622455e-08
0.02	-0.006531308594076034	0.09636106050861142	0.9427293407777075	0.1762208497246462	-0.232085650023484	-0.2616222585592293	-0.03882161560119746	0.0732725929190291	0.0732725929190291	0.1743722772295284	0.1745287733803243	0.03266722973155244	-0.00333475194166442	-0.001842436904320518	0.0105427133936456	0.0005312088987145899	-0.003786366397779082	0.006698489070732416	0.001509547236473314	-0.0225706250567217	0.00940507429049406	0.009405074290494034	-0.01600683713434344	-7.488863214993044e-05	0.01999434893069775	0.01185097291922754	0.1748784589692993	-0.1958836159883185	-0.04083240785755706	-0.3879272645135062	0.4034123357036267	-0.1013490056912804	-0.06883325808165409	-39.07826413582266	81.13165944850198	-20.31173579869735	-7.151438927872838	-53.43276478384476	-698.7239796269121	92.35992361524733	-0.110037680059635	0.5878044806050006	0.02910766612718864	-0.2394498090307624	0.3484090305921099	0.04388706358605093	-1.161159603493574	0.4766059244437865	0.4766059244438014	-0.8263869635749266	0.02693576016943796	1.080262105424711	0.6265809618930306	7.585585042046584e-09	1.050254701281077e-08	-5.185620007713573e-08	3.236221084872579e-08	-1.628042420709516e-09	1.701397422990797e-08	-6.413930375693514e-08
0.03	-0.006555124066594033	0.09649510332133018	0.9427360729414042	0.1761717403457008	-0.2320012728667419	-0.2616041084906285	-0.03910394520940068	0.07339018128801689	0.07339018128801675	0.1741709371472415	0.1745284172542169	0.03292012236262027	-0.003185196105688784	-0.002907131502738026	0.01618986953078606	0.0008083214101127377	-0.005978358281756025	0.01012639657172383	0.002127117212252297	-0.03375588985415237	0.01409676068359026	0.01409676068359032	-0.02415594896874201	4.964149412655956e-07	0.03046585847919945	0.01797921186031936	0.169451901688163	-0.1891157170859784	-0.03919721668772495	-0.3774240918942956	0.3877975028296056	-0.1018174127747156	-0.06498702453244834	-39.08141423365119	76.08528418459336	-21.39310766294735	-6.985482124599251	-49.39491536455976	-698.4269788020634	89.30954141002765	-0.1026558824288735	0.5417739090095024	0.02598114540320052	-0.2005003484704294	0.3324012102378386	0.07169540852662282	-1.076298908622583	0.463072640865432	0.4630726408654385	-0.7933908978737784	-0.002628774129860505	1.012849371031169	0.5937934369874962	7.967773169021588e-09	1.076494371684809e-08	-5.29310031033008e-08	3.344014003569779e-08	-1.5542422409553e-09	1.537087837125367e-08	-6.455436385698682e-08
0.04	-0.006589180591617927	0.09668333824116856	0.9427453698505671	0.1761024257538377	-0.231884132714913	-0.2615795820334797	-0.03949394526374712	0.07355421104976033	0.0735542110497603	0.1738912624257125	0.1745287212483587	0.03327418088746664	-0.002976788264948183	-0.003890647405485048	0.02138113481756345	0.001044157992008387	-0.00782740898130403	0.01325108808812187	0.002784824946143388	-0.04410471428535526	0.0186933528416024	0.01869335284160251	-0.03167376498319904	5.713541767966282e-05	0.04022752768643193	0.02362137387222075	0.1640253444069503	-0.1823478181836364	-0.0375620255178938	-0.366920919275084	0.3721826699555853	-0.1022858198581486	-0.06114079098324317	-39.085836489354	71.04822288208118	-22.48011669660502	-6.810324856504873	-45.39844890676783	-697.9984586090304	86.20912832825276	-0.09380194092553834	0.4966263105323831	0.02085248022668897	-0.1708615721449749	0.2877658336734373	0.05191461520847406	-0.993871530248018	0.4575870774269831	0.457587077426984	-0.7001277995866219	0.02318655129888039	0.938294037170865	0.5293655760549433	8.280088499306007e-09	1.093006344143864e-08	-5.332662727648289e-08	3.40877512951734e-08	-1.464949226127905e-09	1.336974844866687e-08	-6.403638687640634e-08
0.05	-0.006632147007769376	0.09692153356119751	0.9427569121240797	0.1760152015874657	-0.2317370232433637	-0.2615486673880293	-0.03998427300695712	0.07376338089024154	0.07376338089024158	0.1735391964375725	0.1745297156471772	0.03372264620641305	-0.002714043133735246	-0.004636693674783873	0.02621454620532041	0.00126712045842289	-0.009674539580936675	0.01614698042874068	0.003389875994658561	-0.05392385741647213	0.02308371367068169	0.02308371367068179	-0.03867737216379249	0.0001349307421104643	0.04938074262228741	0.02888382571917796	0.1603544747025784	-0.1714145491554574	-0.03651625885578563	-0.3599530519933772	0.3631754686663064	-0.1082802554151109	-0.0585019223217493	-39.0915488476326	67.92258492916785	-25.62005556138607	-6.321978730979176	-42.86493489322985	-697.8092162356928	79.21840080643956	-0.05511393136444402	0.4701908131941541	0.02344434981651308	-0.2002051397932181	0.2869282907301589	0.06357223842025045	-0.9703891635180195	0.4212236895129319	0.4212236895129281	-0.6911704133996227	-0.0009393023815674213	0.891118099054815	0.5181064547923493	7.36080507016025e-09	9.820065553964026e-09	-4.97418594916315e-08	3.159449449864033e-08	-1.558637385495708e-09	1.253302656110216e-08	-6.109702727163304e-08
0.06	-0.006680595478900267	0.09720676144716339	0.9427707692662499	0.1759077928479132	-0.2315616693771133	-0.2615119478543443	-0.04057168287327317	0.07401474695978644	0.07401474695978651	0.1731189557304055	0.1745312849341606	0.03426010025017042	-0.002399989190897495	-0.004987058401378076	0.03078764800494955	0.001507131723542852	-0.01186432361740168	0.01889996702832175	0.003945802593062195	-0.06352113890656892	0.0271325986543421	0.02713259865434216	-0.04530870878854253	0.0001721130506713371	0.05802527264861992	0.03388313619718467	0.1566836049982063	-0.1604812801272786	-0.03547049219367769	-0.3529851847116705	0.3541682673770275	-0.1142746909720733	-0.05586305366025542	-39.09842721893327	64.80452949686384	-28.76674616371198	-5.823327613410728	-40.36518782703651	-697.50126797061	72.17937267588553	-0.01466563238461347	0.444564392906818	0.02426223996778336	-0.2393922595114466	0.2591846854658889	0.04208972518616545	-0.9494992020440036	0.3892919083432031	0.3892919083432019	-0.6256736884179412	0.01506394812489232	0.8365570552662751	0.4767373022648391	6.389664851143749e-09	8.65637850387614e-09	-4.598949625591553e-08	2.89689906260648e-08	-1.66003001535594e-09	1.174533238027523e-08	-5.805571471426215e-08
0.07000000000000001	-0.006731210108444141	0.09753639560132021	0.942787027649611	0.1757780299725476	-0.2313593528118413	-0.261469354657703	-0.04125343531155101	0.0743056949268852	0.07430569492688523	0.1726337176874796	0.1745326616067241	0.03488184259299645	-0.002037012654054151	-0.005133213255701216	0.03509336389753709	0.001739353523753532	-0.01401877292998906	0.02155893295770531	0.004636428780993242	-0.07274101465595297	0.03107862842258002	0.03107862842258019	-0.05174170199878841	4.334433230557115e-05	0.06627879517057013	0.03869805272429323	0.1532182632319881	-0.1565691176329789	-0.03435613110676892	-0.3463015849469307	0.3439953843130432	-0.1136815430794303	-0.05335186967411364	-39.10640296369926	61.55919833635544	-29.11045292052608	-5.730749529469625	-37.99554482902408	-697.3052596769991	70.79817679965198	-0.01419190361094225	0.4167020148692445	0.02192577583076002	-0.1930488999488463	0.2685921332200286	0.0920929748568492	-0.894981647428954	0.4005022934777503	0.4005022934777326	-0.6525342557054532	-0.03582328692344023	0.8130912280625876	0.4817471331038753	7.627452997942479e-09	1.012751098562296e-08	-5.333724570833e-08	3.393046201811236e-08	-1.753916457417595e-09	1.264528433368373e-08	-6.639247027313239e-08
